<svg class="main-svg" xmlns="http://www.w3.org/2000/svg" xmlns:xlink="http://www.w3.org/1999/xlink" width="700" height="500" viewBox="0 0 700 500"><rect x="0" y="0" width="700" height="500" style="fill: rgb(255, 255, 255); fill-opacity: 1;"/><defs id="defs-4afd96"><g class="clips"><clipPath id="clip4afd96xyplot" class="plotclip"><rect width="505" height="320"/></clipPath><clipPath class="axesclip" id="clip4afd96x"><rect x="80" y="0" width="505" height="500"/></clipPath><clipPath class="axesclip" id="clip4afd96y"><rect x="0" y="100" width="700" height="320"/></clipPath><clipPath class="axesclip" id="clip4afd96xy"><rect x="80" y="100" width="505" height="320"/></clipPath></g><g class="gradients"/></defs><g class="bglayer"/><g class="layer-below"><g class="imagelayer"/><g class="shapelayer"/></g><g class="cartesianlayer"><g class="subplot xy"><g class="layer-subplot"><g class="shapelayer"/><g class="imagelayer"/></g><g class="gridlayer"><g class="x"/><g class="y"><path class="ygrid crisp" transform="translate(0,350.63)" d="M80,0h505" style="stroke: rgb(238, 238, 238); stroke-opacity: 1; stroke-width: 1px;"/><path class="ygrid crisp" transform="translate(0,274.77)" d="M80,0h505" style="stroke: rgb(238, 238, 238); stroke-opacity: 1; stroke-width: 1px;"/><path class="ygrid crisp" transform="translate(0,198.92000000000002)" d="M80,0h505" style="stroke: rgb(238, 238, 238); stroke-opacity: 1; stroke-width: 1px;"/><path class="ygrid crisp" transform="translate(0,123.06)" d="M80,0h505" style="stroke: rgb(238, 238, 238); stroke-opacity: 1; stroke-width: 1px;"/></g></g><g class="zerolinelayer"/><path class="xlines-below"/><path class="ylines-below"/><g class="overlines-below"/><g class="xaxislayer-below"/><g class="yaxislayer-below"/><g class="overaxes-below"/><g class="plot" transform="translate(80, 100)" clip-path="url(#clip4afd96xyplot)"><g class="violinlayer mlayer"><g class="trace violins" style="opacity: 1;"><path class="violin" d="M86.82,304Q88.14,301.66 88.97,300.54C89.86,299.35 90.93,298.2 92.04,297.08C93.22,295.89 94.56,294.75 95.87,293.61C97.21,292.44 98.66,291.31 100.02,290.15C101.35,289.01 102.71,287.87 103.94,286.69C105.11,285.56 106.21,284.41 107.23,283.23C108.21,282.1 109.05,280.93 109.95,279.77C110.85,278.62 111.67,277.44 112.62,276.3C113.61,275.12 114.66,273.97 115.79,272.84C116.97,271.66 118.31,270.54 119.55,269.38C120.78,268.23 122.19,267.14 123.2,265.92C124.11,264.82 125.15,263.66 125.41,262.46C125.65,261.35 125.46,260.06 124.9,258.99C124.22,257.71 122.66,256.6 121.17,255.53C119.4,254.26 117.05,253.18 114.81,252.07C112.4,250.87 109.68,249.77 107.16,248.61C104.67,247.46 102.09,246.34 99.77,245.14C97.63,244.03 95.53,242.91 93.73,241.68Q92.13,240.59 89.45,238.22L78.88,238.22Q76.2,240.59 74.6,241.68C72.8,242.91 70.7,244.03 68.56,245.14C66.24,246.34 63.66,247.46 61.17,248.61C58.65,249.77 55.94,250.87 53.53,252.07C51.29,253.18 48.94,254.26 47.16,255.53C45.67,256.6 44.1,257.71 43.43,258.99C42.87,260.06 42.69,261.35 42.93,262.46C43.19,263.66 44.22,264.82 45.13,265.92C46.13,267.14 47.55,268.23 48.78,269.38C50.02,270.54 51.37,271.66 52.55,272.84C53.68,273.97 54.73,275.12 55.72,276.3C56.67,277.44 57.48,278.62 58.38,279.77C59.28,280.93 60.13,282.1 61.11,283.23C62.13,284.41 63.23,285.56 64.4,286.69C65.62,287.87 66.98,289.01 68.31,290.15C69.66,291.31 71.12,292.44 72.46,293.61C73.77,294.75 75.11,295.89 76.29,297.08C77.4,298.2 78.47,299.35 79.36,300.54Q80.2,301.66 81.52,304Z" style="vector-effect: non-scaling-stroke; stroke-width: 2px; stroke: rgb(31, 119, 180); stroke-opacity: 1; fill: rgb(31, 119, 180); fill-opacity: 0.5;"/><g class="points"/></g><g class="trace violins" style="opacity: 1;"><path class="violin" d="M255.14,192.83Q256.49,190.83 257.33,189.89C258.25,188.87 259.34,187.9 260.48,186.95C261.7,185.94 263.07,184.97 264.43,184.01C265.84,183.01 267.35,182.05 268.79,181.07C270.21,180.1 271.66,179.14 273.01,178.14C274.31,177.18 275.55,176.2 276.74,175.2C277.88,174.24 278.93,173.24 280.01,172.26C281.09,171.28 282.11,170.29 283.21,169.32C284.34,168.33 285.52,167.36 286.69,166.38C287.87,165.4 289.16,164.46 290.24,163.44C291.25,162.49 292.42,161.56 293,160.5C293.5,159.58 293.92,158.51 293.74,157.57C293.54,156.54 292.56,155.52 291.57,154.63C290.31,153.5 288.35,152.61 286.48,151.69C284.35,150.64 281.81,149.72 279.41,148.75C276.93,147.75 274.28,146.81 271.83,145.81C269.5,144.85 267.14,143.91 265.06,142.87C263.19,141.94 261.38,140.99 259.87,139.93Q258.55,139.01 256.4,136.99L248.6,136.99Q246.45,139.01 245.13,139.93C243.62,140.99 241.81,141.94 239.94,142.87C237.86,143.91 235.5,144.85 233.17,145.81C230.72,146.81 228.07,147.75 225.59,148.75C223.19,149.72 220.65,150.64 218.52,151.69C216.65,152.61 214.69,153.5 213.43,154.63C212.44,155.52 211.46,156.54 211.26,157.57C211.08,158.51 211.5,159.58 212,160.5C212.58,161.56 213.75,162.49 214.76,163.44C215.84,164.46 217.13,165.4 218.31,166.38C219.48,167.36 220.66,168.33 221.79,169.32C222.89,170.29 223.91,171.28 224.99,172.26C226.07,173.24 227.12,174.24 228.26,175.2C229.45,176.2 230.69,177.18 231.99,178.14C233.34,179.14 234.79,180.1 236.21,181.07C237.65,182.05 239.16,183.01 240.57,184.01C241.93,184.97 243.3,185.94 244.52,186.95C245.66,187.9 246.75,188.87 247.67,189.89Q248.51,190.83 249.86,192.83Z" style="vector-effect: non-scaling-stroke; stroke-width: 2px; stroke: rgb(255, 127, 14); stroke-opacity: 1; fill: rgb(255, 127, 14); fill-opacity: 0.5;"/><g class="points"/></g><g class="trace violins" style="opacity: 1;"><path class="violin" d="M424.66,272.86Q426.66,263.81 428.07,259.34C429.5,254.79 431.26,250.28 433.21,245.82C435.2,241.26 437.57,236.78 439.93,232.3C442.33,227.77 445.05,223.31 447.5,218.79C449.94,214.3 452.54,209.84 454.61,205.27C456.62,200.82 458.53,196.32 459.78,191.75C461,187.3 461.8,182.75 462.08,178.23C462.35,173.74 462,169.2 461.45,164.71C460.9,160.18 459.8,155.68 458.77,151.19C457.74,146.67 456.43,142.18 455.26,137.67C454.1,133.16 452.9,128.66 451.78,124.15C450.66,119.65 449.64,115.14 448.55,110.63C447.46,106.12 446.43,101.61 445.25,97.11C444.07,92.6 442.81,88.09 441.48,83.6C440.14,79.08 438.66,74.58 437.22,70.08C435.78,65.57 434.23,61.08 432.83,56.56C431.44,52.06 430.05,47.56 428.85,43.04C427.66,38.55 426.58,34.04 425.68,29.52Q424.79,25.03 423.48,16L418.18,16Q416.87,25.03 415.98,29.52C415.08,34.04 414.01,38.55 412.82,43.04C411.62,47.56 410.22,52.06 408.83,56.56C407.43,61.08 405.88,65.57 404.44,70.08C403,74.58 401.53,79.08 400.19,83.6C398.86,88.09 397.6,92.6 396.42,97.11C395.24,101.61 394.2,106.12 393.11,110.63C392.02,115.14 391,119.65 389.88,124.15C388.76,128.66 387.57,133.16 386.41,137.67C385.24,142.18 383.92,146.67 382.89,151.19C381.86,155.68 380.77,160.18 380.22,164.71C379.68,169.2 379.32,173.74 379.59,178.23C379.86,182.75 380.66,187.3 381.88,191.75C383.13,196.32 385.05,200.82 387.06,205.27C389.13,209.84 391.72,214.3 394.16,218.79C396.61,223.31 399.33,227.77 401.73,232.3C404.1,236.78 406.47,241.26 408.46,245.82C410.41,250.28 412.16,254.79 413.59,259.34Q415,263.81 417.01,272.86Z" style="vector-effect: non-scaling-stroke; stroke-width: 2px; stroke: rgb(44, 160, 44); stroke-opacity: 1; fill: rgb(44, 160, 44); fill-opacity: 0.5;"/><g class="points"/></g></g></g><g class="overplot"/><path class="xlines-above crisp" d="M0,0" style="fill: none;"/><path class="ylines-above crisp" d="M0,0" style="fill: none;"/><g class="overlines-above"/><g class="xaxislayer-above"><g class="xtick"><text text-anchor="middle" x="0" y="439" transform="translate(164.17000000000002,0)" style="font-family: 'Open Sans', verdana, arial, sans-serif; font-size: 18px; fill: rgb(68, 68, 68); fill-opacity: 1; white-space: pre;">NCBI</text></g><g class="xtick"><text text-anchor="middle" x="0" y="439" transform="translate(332.5,0)" style="font-family: 'Open Sans', verdana, arial, sans-serif; font-size: 18px; fill: rgb(68, 68, 68); fill-opacity: 1; white-space: pre;">GG</text></g><g class="xtick"><text text-anchor="middle" x="0" y="439" transform="translate(500.83,0)" style="font-family: 'Open Sans', verdana, arial, sans-serif; font-size: 18px; fill: rgb(68, 68, 68); fill-opacity: 1; white-space: pre;">Silva</text></g></g><g class="yaxislayer-above"><g class="ytick"><text text-anchor="end" x="79" y="6.3" transform="translate(0,350.63)" style="font-family: 'Open Sans', verdana, arial, sans-serif; font-size: 18px; fill: rgb(68, 68, 68); fill-opacity: 1; white-space: pre;">0.45</text></g><g class="ytick"><text text-anchor="end" x="79" y="6.3" transform="translate(0,274.77)" style="font-family: 'Open Sans', verdana, arial, sans-serif; font-size: 18px; fill: rgb(68, 68, 68); fill-opacity: 1; white-space: pre;">0.5</text></g><g class="ytick"><text text-anchor="end" x="79" y="6.3" transform="translate(0,198.92000000000002)" style="font-family: 'Open Sans', verdana, arial, sans-serif; font-size: 18px; fill: rgb(68, 68, 68); fill-opacity: 1; white-space: pre;">0.55</text></g><g class="ytick"><text text-anchor="end" x="79" y="6.3" transform="translate(0,123.06)" style="font-family: 'Open Sans', verdana, arial, sans-serif; font-size: 18px; fill: rgb(68, 68, 68); fill-opacity: 1; white-space: pre;">0.6</text></g></g><g class="overaxes-above"/></g></g><g class="polarlayer"/><g class="ternarylayer"/><g class="geolayer"/><g class="pielayer"/><g class="glimages"/><defs id="topdefs-4afd96"><g class="clips"/><clipPath id="legend4afd96"><rect width="93" height="97" x="0" y="0"/></clipPath></defs><g class="layer-above"><g class="imagelayer"/><g class="shapelayer"/></g><g class="infolayer"><g class="legend" pointer-events="all" transform="translate(595.1, 100)"><rect class="bg" shape-rendering="crispEdges" style="stroke: rgb(68, 68, 68); stroke-opacity: 1; fill: rgb(255, 255, 255); fill-opacity: 1; stroke-width: 0px;" width="93" height="97" x="0" y="0"/><g class="scrollbox" transform="translate(0, 0)" clip-path="url(#legend4afd96)"><g class="groups"><g class="traces" transform="translate(0, 19.5)" style="opacity: 1;"><g class="layers" style="opacity: 1;"><g class="legendfill"/><g class="legendlines"/><g class="legendsymbols"><g class="legendpoints"><path class="legendbox" d="M6,6H-6V-6H6Z" transform="translate(20,0)" style="stroke-width: 2px; fill: rgb(31, 119, 180); fill-opacity: 0.5; stroke: rgb(31, 119, 180); stroke-opacity: 1;"/></g></g></g><text class="legendtext user-select-none" text-anchor="start" x="40" y="7.8" style="font-family: 'Open Sans', verdana, arial, sans-serif; font-size: 20px; fill: rgb(68, 68, 68); fill-opacity: 1; white-space: pre;">NCBI</text><rect class="legendtoggle" pointer-events="all" style="cursor: pointer; fill: rgb(0, 0, 0); fill-opacity: 0;" x="0" y="-14.5" width="133" height="29"/></g><g class="traces" transform="translate(0, 48.5)" style="opacity: 1;"><g class="layers" style="opacity: 1;"><g class="legendfill"/><g class="legendlines"/><g class="legendsymbols"><g class="legendpoints"><path class="legendbox" d="M6,6H-6V-6H6Z" transform="translate(20,0)" style="stroke-width: 2px; fill: rgb(255, 127, 14); fill-opacity: 0.5; stroke: rgb(255, 127, 14); stroke-opacity: 1;"/></g></g></g><text class="legendtext user-select-none" text-anchor="start" x="40" y="7.8" style="font-family: 'Open Sans', verdana, arial, sans-serif; font-size: 20px; fill: rgb(68, 68, 68); fill-opacity: 1; white-space: pre;">GG</text><rect class="legendtoggle" pointer-events="all" style="cursor: pointer; fill: rgb(0, 0, 0); fill-opacity: 0;" x="0" y="-14.5" width="133" height="29"/></g><g class="traces" transform="translate(0, 77.5)" style="opacity: 1;"><g class="layers" style="opacity: 1;"><g class="legendfill"/><g class="legendlines"/><g class="legendsymbols"><g class="legendpoints"><path class="legendbox" d="M6,6H-6V-6H6Z" transform="translate(20,0)" style="stroke-width: 2px; fill: rgb(44, 160, 44); fill-opacity: 0.5; stroke: rgb(44, 160, 44); stroke-opacity: 1;"/></g></g></g><text class="legendtext user-select-none" text-anchor="start" x="40" y="7.8" style="font-family: 'Open Sans', verdana, arial, sans-serif; font-size: 20px; fill: rgb(68, 68, 68); fill-opacity: 1; white-space: pre;">Silva</text><rect class="legendtoggle" pointer-events="all" x="0" y="-14.5" width="133" height="29" style="cursor: pointer; fill: rgb(0, 0, 0); fill-opacity: 0;"/></g></g></g><rect class="scrollbar" rx="20" ry="3" width="0" height="0" style="fill: rgb(128, 139, 164); fill-opacity: 1;" x="0" y="0"/></g><g class="g-gtitle"/><g class="g-xtitle"/><g class="g-ytitle"><text class="ytitle" transform="rotate(-90,30,260)" x="30" y="260" text-anchor="middle" style="font-family: 'Open Sans', verdana, arial, sans-serif; font-size: 20px; fill: rgb(68, 68, 68); opacity: 1; font-weight: normal; white-space: pre;">Bray Curtis dissimilarity</text></g></g></svg>